<?xml version="1.0" encoding="UTF-8" standalone="no"?>
<!-- Created with Inkscape (http://www.inkscape.org/) -->

<svg
   width="720"
   height="470"
   viewBox="0 0 190.5 124.35417"
   version="1.1"
   id="svg1"
   inkscape:version="1.3.2 (091e20e, 2023-11-25, custom)"
   sodipodi:docname="hero-img-pc.svg"
   xmlns:inkscape="http://www.inkscape.org/namespaces/inkscape"
   xmlns:sodipodi="http://sodipodi.sourceforge.net/DTD/sodipodi-0.dtd"
   xmlns="http://www.w3.org/2000/svg"
   xmlns:svg="http://www.w3.org/2000/svg">
  <sodipodi:namedview
     id="namedview1"
     pagecolor="#ffffff"
     bordercolor="#000000"
     borderopacity="0.25"
     inkscape:showpageshadow="2"
     inkscape:pageopacity="0.0"
     inkscape:pagecheckerboard="0"
     inkscape:deskcolor="#d1d1d1"
     inkscape:document-units="mm"
     inkscape:zoom="1.5332452"
     inkscape:cx="374.36935"
     inkscape:cy="274.90711"
     inkscape:window-width="2560"
     inkscape:window-height="1494"
     inkscape:window-x="-11"
     inkscape:window-y="-11"
     inkscape:window-maximized="1"
     inkscape:current-layer="OBJECTS" />
  <defs
     id="defs1" />
  <g
     inkscape:label="Vrstva 1"
     inkscape:groupmode="layer"
     id="layer1">
    <g
       id="g2"
       transform="matrix(0.26458333,0,0,0.26458333,-47.819313,44.071472)">
      <g
         id="BACKGROUND"
         transform="matrix(0.96142977,0,0,0.94008652,180.2805,-166.52318)"
         style="fill:#152013;fill-opacity:1">
	<rect
   style="fill:#152013;fill-opacity:1"
   width="750"
   height="500"
   id="rect1"
   x="0"
   y="0" />

</g>
      <g
         id="OBJECTS"
         transform="matrix(0.46896067,0,0,0.5766115,239.24835,-21.59515)">
	<rect
   y="359.5585"
   style="opacity:0.31;fill:#d6ac88;stroke-width:1.78492"
   width="1541.8065"
   height="203.95297"
   id="rect2"
   x="-127.81618" />

	<g
   id="g4"
   transform="matrix(1.6426273,0,0,1.5310057,77.127144,-236.0107)">
		<path
   style="opacity:0.54;fill:#d6ac88"
   d="m 461.468,256.632 c 4.235,5.91 12.477,9.028 19.904,7.531 -10.209,-1.871 -7.746,-14.737 -3.947,-21.275 15.221,-26.915 -5.748,-59.328 -39.299,-50.449 -51.496,15.512 -30.423,80.286 23.342,64.193 z"
   id="path2" />

		<path
   style="opacity:0.54;fill:#d6ac88"
   d="m 287.049,258.113 c -4.267,5.954 -12.572,9.097 -20.054,7.588 10.286,-1.885 7.804,-14.848 3.977,-21.437 -15.336,-27.119 5.791,-59.777 39.597,-50.83 51.884,15.629 30.652,80.894 -23.52,64.679 z"
   id="path3" />

		<path
   style="fill:none;fill-opacity:1;stroke:#ffbda8;stroke-linecap:round;stroke-linejoin:round;stroke-miterlimit:10;stroke-opacity:1"
   d="m 297.406,236.543 c 5.395,2.219 12.146,1.153 16.466,-2.602 4.32,-3.754 5.964,-9.983 4.01,-15.192 -0.475,-1.266 -1.146,-2.475 -2.051,-3.514 -3.703,-4.256 -10.354,-4.858 -16.201,-4.502 -1.66,0.101 -3.345,0.259 -4.888,0.843 -5.501,2.086 -7.232,8.69 -6.68,14.228 0.469,4.699 2.273,9.612 6.372,12.352 3.208,2.145 7.43,2.649 11.313,2.014 3.882,-0.635 7.483,-2.311 10.861,-4.215 1.155,-0.651 2.318,-1.353 3.133,-2.359 1.033,-1.274 1.406,-2.907 1.609,-4.496 0.648,-5.091 -0.268,-10.495 -3.393,-14.704 -4.578,-6.167 -13.84,-8.803 -21.344,-6.163 -7.505,2.64 -12.613,10.251 -12.018,17.743 0.596,7.492 6.773,14.271 14.547,16.101 3.557,0.837 7.285,0.72 10.942,0.458 6.783,-0.487 31.735,-2.14 38.375,-3.526 20.403,-4.259 38.253,-14.688 49.259,-31.343 3.652,-5.527 6.5,-11.645 7.244,-18.108 0.744,-6.463 -0.784,-13.312 -5.099,-18.401 -4.315,-5.089 -11.62,-8.097 -18.402,-6.733 -6.782,1.364 -12.358,7.551 -11.783,14.029 0.185,2.082 2.057,4.611 4.06,3.692 1.383,-0.635 1.505,-2.431 1.243,-3.854 -1.398,-7.572 -8.658,-13.841 -16.825,-14.528 -8.167,-0.687 -16.502,4.272 -19.315,11.49 -3.095,7.942 0.246,16.823 4.827,24.107 9.494,15.097 24.562,27.048 42.02,33.326 9.894,3.558 26.211,4.861 33.566,-2.288 2.16,-2.1 3.752,-4.708 6.158,-6.558 2.973,-2.287 6.908,-3.185 10.745,-3.437 2.178,-0.143 4.61,-0.009 6.156,1.436 1.854,1.732 1.635,4.662 0.528,6.885 -1.107,2.223 -2.924,4.081 -4.065,6.288 1.628,-2.132 0.957,-5.486 -1.385,-6.92 -1.595,-0.977 -4.087,-1.593 -4.027,-3.378 0.012,-0.361 0.147,-0.71 0.316,-1.035 0.966,-1.854 3.19,-3.063 5.387,-2.926 2.197,0.137 4.231,1.61 4.927,3.568 0.673,1.894 0.363,4.382 2.158,5.456 1.325,0.793 3.091,0.289 4.453,-0.446 3.504,-1.891 6.107,-5.338 6.441,-9.115 0.334,-3.777 -1.802,-7.742 -5.429,-9.419 -3.627,-1.677 -8.529,-0.697 -10.827,2.421 -1.045,1.418 -1.501,3.402 -0.505,4.85 0.476,0.691 1.225,1.181 2.011,1.548 3.176,1.483 6.916,1.163 10.457,1.387 3.541,0.224 7.516,1.385 8.937,4.432 1.286,2.758 -0.052,5.971 -1.829,8.478 -3.081,4.347 -7.545,7.822 -12.67,9.863 -2.332,0.929 -5.202,1.511 -7.262,0.128 -1.977,-1.326 -2.38,-3.913 -2.289,-6.19 0.178,-4.429 1.603,-8.81 4.091,-12.579 1.824,-2.763 4.255,-6.257 2.226,-8.892 -0.898,-1.166 -2.444,-1.71 -3.927,-2.084 -3.138,-0.791 -6.415,-1.098 -9.658,-0.906 -1.427,0.085 -2.889,0.278 -4.129,0.945 -2.587,1.393 -3.55,4.493 -3.487,7.289 0.124,5.444 3.792,10.963 9.371,12.485 8.885,2.424 18.187,-5.431 27.118,-3.16 1.963,0.499 4.068,2.027 3.635,3.89 -0.238,1.022 -1.178,1.754 -2.096,2.35 -4.152,2.696 -9.078,4.334 -14.114,4.695 -3.197,0.229 -6.688,-0.149 -9.056,-2.176 -3.643,-3.118 -3.095,-8.674 -1.245,-12.96 1.628,-3.772 4.29,-7.449 8.328,-8.943 5.967,-2.209 12.491,0.964 18.843,1.812 1.302,0.174 2.769,0.205 3.771,-0.593 0.791,-0.631 1.1,-1.635 1.314,-2.588 0.587,-2.615 0.701,-5.52 -0.83,-7.774 -2.548,-3.752 -8.275,-4.01 -12.945,-3.215 -3.311,0.564 -7.319,2.398 -6.982,5.536 0.142,1.322 1.088,2.446 2.132,3.345 5.101,4.392 12.878,5.054 18.174,9.239 1.559,1.232 2.947,3.025 2.576,4.905 -0.251,1.273 -1.255,2.287 -2.264,3.171 -3.724,3.264 -8.142,5.829 -12.918,7.503 -3.181,1.115 -7.138,1.706 -9.66,-0.425 -2.026,-1.712 -2.339,-4.527 -2.628,-7.069 -0.397,-3.484 -0.999,-6.948 -1.804,-10.369 -0.978,-4.159 -3.112,-9.007 -7.609,-9.622 -3.233,-0.442 -6.391,1.765 -7.718,4.563 -0.538,1.133 -0.839,2.399 -0.617,3.621 0.535,2.938 3.812,4.695 6.889,5.448 8.376,2.049 17.239,-0.267 25.291,-3.246 1.099,-0.406 2.272,-0.834 3.429,-0.615 1.636,0.31 2.739,1.897 2.833,3.458 0.094,1.562 -0.622,3.071 -1.519,4.39 -2.421,3.558 -6.321,6.206 -10.682,7.253 -3.511,0.843 -7.712,0.473 -10.057,-2.117 -1.211,-1.338 -1.769,-3.097 -1.991,-4.839 -0.453,-3.557 0.409,-7.25 2.405,-10.304 1.292,-1.976 3.094,-3.825 3.314,-6.133 0.163,-1.704 -0.609,-3.406 -1.804,-4.7 -2.771,-3.001 -8.017,-3.729 -11.49,-1.459 -3.473,2.27 -4.505,7.309 -2.023,10.523 2.251,2.915 6.625,3.854 10.372,3.066 3.747,-0.787 6.968,-2.994 9.842,-5.381 1.552,-1.289 3.07,-2.685 3.976,-4.433 0.906,-1.748 1.107,-3.925 0.042,-5.592 -1.346,-2.107 -4.253,-2.828 -6.873,-2.85 -3.527,-0.029 -7.191,0.954 -9.693,3.285 -2.502,2.33 -3.551,6.15 -1.939,9.09 1.681,3.065 5.66,4.435 9.337,4.497 3.676,0.062 7.281,-0.895 10.942,-1.209 1.504,-0.129 3.089,-0.135 4.44,0.498 2.934,1.376 3.54,5.101 2.966,8.129 -1.194,6.299 -6.279,12.001 -12.911,13.518 -6.632,1.517 -14.361,-1.746 -16.889,-7.689 -2.529,-5.943 1.232,-13.718 7.856,-15.266 0.655,1.433 -0.012,3.148 -1.154,4.282 -1.142,1.134 -2.679,1.827 -4.145,2.564 -3.88,1.952 -7.489,4.379 -10.705,7.199 -2.445,2.144 -4.745,5.719 -2.629,8.151 0.917,1.054 2.416,1.486 3.851,1.689 4.481,0.635 9.217,-0.504 12.818,-3.082 2.345,-1.679 4.261,-4.059 4.677,-6.796 0.416,-2.737 -0.958,-5.794 -3.643,-6.941 -3.894,-1.663 -8.447,1.218 -10.505,4.733 -1.369,2.338 -2.08,5.208 -1.01,7.679 0.992,2.291 3.352,3.848 5.839,4.673 5.197,1.723 11.358,0.569 15.449,-2.894 1.428,-1.209 2.663,-2.804 2.707,-4.607 0.044,-1.803 -1.549,-3.691 -3.465,-3.517 -1.515,0.138 -2.6,1.394 -3.456,2.574 -1.321,1.822 -2.561,4.199 -1.405,6.116 0.714,1.184 2.165,1.803 3.581,2.101 7.298,1.533 14.82,-4.188 16.343,-11.05 1.523,-6.862 -1.888,-14.055 -7.145,-19.04 -1.208,-1.146 -2.634,-2.569 -2.169,-4.119 0.355,-1.184 1.689,-1.841 2.936,-2.224 2.092,-0.643 4.781,-0.733 6.091,0.926 1.518,1.921 0.097,4.615 -1.424,6.534 -7.051,8.892 -16.475,16.117 -27.172,20.833 -0.259,-3.897 -0.055,-7.82 0.605,-11.675 0.411,-2.401 1.023,-4.83 2.419,-6.88 1.396,-2.05 3.704,-3.683 6.295,-3.81 3.594,-0.176 6.764,2.617 7.895,5.819 1.131,3.202 0.651,6.696 -0.073,9.999 -0.724,3.304 -1.687,6.622 -1.485,9.99 0.101,1.681 0.615,3.518 2.118,4.44 1.553,0.952 3.627,0.602 5.349,-0.045 2.168,-0.815 4.203,-2.095 5.473,-3.933 2.96,-4.283 0.485,-10.658 -4.402,-12.909 -4.887,-2.251 -11.134,-0.735 -15.008,2.851 -3.874,3.586 -5.589,8.85 -5.633,13.953 -0.03,3.426 1.01,7.357 4.298,8.855 3.618,1.647 7.844,-0.509 11.025,-2.816 2.375,-1.722 4.685,-3.617 6.218,-6.036 1.533,-2.419 2.199,-5.46 1.13,-8.089 -1.069,-2.629 -4.156,-4.588 -7.088,-3.983 -0.744,0.153 -1.461,0.464 -2.014,0.956 -1.414,1.257 -1.448,3.415 -0.73,5.112 1.921,4.54 8.927,6.296 13.009,3.261 0.389,-0.289 0.78,-0.674 0.76,-1.139 -0.02,-0.465 -0.737,-0.828 -1.031,-0.453"
   id="path4" />

	</g>

	<g
   id="g65"
   transform="matrix(1.4373447,0,0,1.3171198,246.64166,-121.27273)">
		<g
   id="g12">
			<g
   id="g6"
   style="fill:#ffbda8;fill-opacity:1">
				<path
   style="fill:#ffbda8;fill-opacity:1"
   d="m 328.831,394.751 -12.289,44.643 c -0.91,4.805 5.231,7.609 8.266,3.775 l 33.035,-48.261 z"
   id="path5" />

				<path
   d="m 328.707,395.202 -0.889,3.228 c 3.561,3.362 10.853,7.522 24.054,5.2 l 3.931,-5.743 z"
   id="path6"
   style="fill:#ffbda8;fill-opacity:1" />

			</g>

			<g
   id="g8"
   style="fill:#ffbda8;fill-opacity:1">
				<path
   style="fill:#ffbda8;fill-opacity:1"
   d="m 556.306,394.751 12.289,44.643 c 0.91,4.805 -5.231,7.609 -8.266,3.775 l -33.035,-48.261 z"
   id="path7" />

				<path
   d="m 556.43,395.202 0.889,3.228 c -3.561,3.362 -10.853,7.522 -24.054,5.2 l -3.931,-5.743 z"
   id="path8"
   style="fill:#ffbda8;fill-opacity:1" />

			</g>

			<g
   id="g11"
   style="fill:#44775b;fill-opacity:1">
				<path
   style="fill:#44775b;fill-opacity:1"
   d="m 585.532,266.661 c 10.893,4.226 21.785,8.451 32.678,12.677 3.4,1.319 6.901,2.701 9.506,5.253 2.16,2.116 3.511,4.838 4.554,7.708 0.973,2.677 0.589,5.658 -1.043,7.991 -21.801,31.18 -42.869,62.788 -66.921,92.273 -2.971,3.642 -7.136,5.559 -11.62,6.858 -1.293,0.375 -2.636,0.552 -3.982,0.545 l -216.759,-1.171 c -5.035,-0.027 -8.97,-4.575 -8.029,-9.522 0.518,-2.721 1.939,-5.269 4.212,-7.118 6.897,-5.61 11.626,-13.701 19.499,-17.83 l 170.488,-0.842 c 10.728,0 14.804,-15.293 18.039,-25.521 5.446,-17.218 9.336,-35.091 17.578,-51.159 2.811,-5.48 6.209,-10.819 11.051,-14.625 4.843,-3.805 15.008,-7.744 20.749,-5.517 z"
   id="path9" />

				<path
   style="opacity:0.48;fill:#44775b;fill-opacity:1"
   d="M 564.306,392.564"
   id="path10" />

				<path
   style="fill:#44775b;fill-opacity:1;stroke:#000000;stroke-linecap:round;stroke-linejoin:round;stroke-miterlimit:10"
   d="m 625.258,282.658 -69.033,95.673 c -2.981,4.131 -7.764,6.578 -12.858,6.578 H 325.673"
   id="path11" />

				
					<line
   style="fill:#44775b;fill-opacity:1;stroke:#000000;stroke-linecap:round;stroke-linejoin:round;stroke-miterlimit:10"
   x1="552.91699"
   y1="381.70999"
   x2="534.33301"
   y2="365.358"
   id="line11" />

			</g>

		</g>

		<g
   id="g64">
			<g
   id="g13">
				<path
   d="m 587.397,193.517 c 21.387,6.509 30.339,22.4 31.065,43.935 8.777,0.538 13.495,11.884 8.028,18.667 7.789,3.1 10.122,18.858 -0.416,19.355 1.5,9.786 -9.925,17.539 -18.523,12.722 -0.086,3.095 -2.004,6.578 -4.35,8.604 -3.241,1.679 -8.732,3.073 -11.602,0.111 -2.616,8.217 -16.394,7.669 -19.686,0.017 -12.24,4.234 -20.548,-10.94 -16.98,-21.569 2.642,-10.926 11.304,-19.215 19.638,-26.758 17.411,-13.423 30.508,-36.339 12.826,-55.084 z"
   id="path12" />

				<path
   d="m 545.762,201.052 c -3.477,5.866 -9.575,10.109 -16.283,11.331 -7.327,0.031 -20.233,6.927 -13.786,15.272 -6.091,0.714 -9.165,12.288 -2.539,14.246 -8.78,-2.356 -15.959,10.371 -7.188,15.194 -9.057,7.733 3.229,23.98 13.21,18.424 5.72,10.024 22.471,6.222 27.266,-2.762 16.522,-27.906 3.664,-44.691 -0.68,-71.705 z"
   id="path13" />

			</g>

			<g
   id="g23">
				<path
   style="fill:#c36c46"
   d="m 502.453,300.563 c -1.921,1.954 -3.723,4.107 -4.721,6.659 -0.997,2.552 -1.092,5.575 0.3,7.935 0.668,1.132 1.761,2.121 3.072,2.223 0.758,0.059 1.504,-0.182 2.222,-0.432 3.63,-1.264 7.367,-3.013 9.408,-6.27 2.109,-3.366 1.96,-7.769 0.544,-11.48 -0.542,-1.42 -1.301,-2.828 -2.547,-3.698 -3.784,-2.639 -6.062,2.81 -8.278,5.063 z"
   id="path14" />

				<g
   id="g22">
					<g
   id="g21">
						<path
   style="fill:#c36c46"
   d="m 501.519,310.171 c -10.881,-7.552 -21.499,-15.656 -30.359,-25.424 -3.413,-3.763 -11.586,-11.663 -4.052,0.51 -3.889,-1.771 -6.55,-3.225 -8.125,2.174 -1.489,3.048 1.021,4.726 3.301,6.043 4.808,2.779 7.899,6.706 11.256,11.13 4.53,5.97 8.566,12.648 14.754,16.95 11.393,11.086 15.94,0.113 13.225,-11.383 z"
   id="path15" />

						<g
   id="g20">
							<path
   style="fill:#c36c46"
   d="m 466.785,285.319 c -2.338,-2.028 -5.018,-5.053 -8.135,-5.734 -0.52,-0.113 -0.953,0.444 -0.722,0.923 0.692,1.439 2.312,2.507 3.394,3.61 -1.469,-1.152 -4.101,-3.047 -6.252,-3.414 -0.565,-0.096 -1.034,0.498 -0.756,0.999 0.975,1.757 4.006,3.267 5.353,4.227 -1.894,-1.112 -4.091,-1.722 -6.291,-1.948 -0.547,-0.056 -0.979,0.528 -0.687,0.994 1.011,1.611 4.588,3.03 6.238,3.55 -1.304,0.154 -9.585,-0.415 -5.019,1.677 2.471,1.132 5.526,1.033 7.725,2.914 0.335,0.305 1.025,0.611 1.281,0.075 -0.465,-3.154 0.711,-6.837 3.871,-7.873 z"
   id="path16" />

							<path
   style="fill:none;stroke:#000000;stroke-linecap:round;stroke-linejoin:round;stroke-miterlimit:10"
   d="m 466.388,284.367 c 0.529,2.12 1.635,4.093 3.166,5.651"
   id="path17" />

							<path
   style="fill:none;stroke:#000000;stroke-linecap:round;stroke-linejoin:round;stroke-miterlimit:10"
   d="m 465.884,285.001 c -2.349,1.464 -3.901,4.133 -4.011,6.899"
   id="path18" />

							
								<line
   style="fill:none;stroke:#000000;stroke-linecap:round;stroke-linejoin:round;stroke-miterlimit:10"
   x1="464.41101"
   y1="286.17999"
   x2="459.66599"
   y2="282.901"
   id="line18" />

							
								<line
   style="fill:none;stroke:#000000;stroke-linecap:round;stroke-linejoin:round;stroke-miterlimit:10"
   x1="462.67401"
   y1="287.92001"
   x2="457.92899"
   y2="284.64099"
   id="line19" />

							
								<line
   style="fill:none;stroke:#000000;stroke-linecap:round;stroke-linejoin:round;stroke-miterlimit:10"
   x1="462.104"
   y1="290.27899"
   x2="456.93301"
   y2="287.58499"
   id="line20" />

						</g>

					</g>

					
						<line
   style="fill:none;stroke:#000000;stroke-linecap:round;stroke-linejoin:round;stroke-miterlimit:10"
   x1="491.14099"
   y1="302.66699"
   x2="501.51901"
   y2="310.17099"
   id="line21" />

				</g>

				<path
   style="fill:#d6ac88"
   d="m 516.889,282.218 c -1.747,1.406 -3.346,2.986 -4.942,4.562 -2.364,2.334 -4.727,4.668 -7.09,7.003 -0.165,0.163 -0.339,0.341 -0.383,0.569 -0.056,0.287 0.107,0.566 0.265,0.811 1.656,2.564 3.628,4.923 5.859,7.007 0.199,0.186 0.417,0.378 0.686,0.417 0.242,0.035 0.483,-0.061 0.709,-0.155 3.729,-1.552 7.416,-3.204 11.056,-4.954 1.976,-0.95 3.948,-1.934 5.731,-3.21 4.17,-2.981 10.852,-7.316 13.652,-11.61 1.114,-1.708 1.166,-6.896 -0.351,-9.088 -1.218,-1.76 -4.973,-0.393 -6.558,0.022 -6.638,1.741 -13.241,4.283 -18.634,8.626 z"
   id="path22" />

			</g>

			<g
   id="g37">
				<path
   style="fill:#c36c46"
   d="m 364.609,349.452 -8.699,1.708 4.208,9.443 c 0,0 12.948,1.639 4.491,-11.151 z"
   id="path23" />

				<g
   id="g28">
					<path
   style="fill:#d6ac88"
   d="m 352.803,365.049 c 3.634,-0.225 8.542,1.347 11.551,-0.89 0.22,-0.426 -0.333,-0.818 -0.77,-1.012 -4.112,-1.75 -6.333,-6.841 -4.795,-11.035 8.866,-1.624 4.322,-12.121 -2.783,-7.508 -13.513,-16.568 -26.401,-22.878 -18.017,-1.934 1.322,3.301 3.004,6.445 4.849,9.484 2.798,4.609 5.827,12.173 9.965,12.895 z"
   id="path24" />

					<path
   style="fill:#ffd6c1"
   d="m 342.979,336.439 c 0.831,-1.047 2.375,-2.918 1.244,-3.786 -8,-6.14 -11.443,-4.564 -7.191,7.464 2.374,-0.241 4.457,-1.802 5.947,-3.678 z"
   id="path25" />

					<path
   style="fill:#ffffff"
   d="m 360.793,347.027 c 0,0.698 -0.691,1.263 -1.544,1.263 -0.853,0 -1.544,-0.566 -1.544,-1.263 0,-0.698 0.691,-1.263 1.544,-1.263 0.853,0 1.544,0.565 1.544,1.263 z"
   id="path26" />

					<path
   style="fill:none;stroke:#ffffff;stroke-linecap:round;stroke-linejoin:round;stroke-miterlimit:10"
   d="m 349.518,337.375 c 0,0 0.673,3.153 -4.079,7.019"
   id="path27" />

					<path
   style="fill:none;stroke:#ffffff;stroke-linecap:round;stroke-linejoin:round;stroke-miterlimit:10"
   d="m 351.887,340.117 c 0,0 0.673,3.153 -4.079,7.019"
   id="path28" />

				</g>

				<path
   style="fill:#c36c46"
   d="m 360.118,360.603 -7.108,0.068 c 0,0 -2.558,12.413 3.554,14.137 h 10.32 z"
   id="path29" />

				<g
   id="g36">
					<path
   style="fill:#d6ac88"
   d="m 347.648,376.298 c 3.634,-0.225 8.542,1.347 11.551,-0.89 0.22,-0.426 -0.333,-0.818 -0.77,-1.012 -4.112,-1.75 -6.333,-6.841 -4.795,-11.035 8.866,-1.624 4.322,-12.121 -2.783,-7.508 -13.513,-16.568 -26.401,-22.878 -18.017,-1.934 1.322,3.301 3.004,6.445 4.849,9.484 2.798,4.609 5.827,12.173 9.965,12.895 z"
   id="path30" />

					<path
   style="fill:#ffd6c1"
   d="m 337.812,347.68 c 0.831,-1.047 2.375,-2.917 1.244,-3.786 -7.526,-5.782 -11.443,-4.564 -7.191,7.464 2.374,-0.241 4.457,-1.802 5.947,-3.678 z"
   id="path31" />

					<path
   style="fill:#ffd6c1"
   d="m 347.404,374.519 c -6.169,-4.994 -13.932,-23.532 -13.932,-23.532 l -1.942,-0.612 c 1.745,6.021 9.72,27.768 18.334,25.952 z"
   id="path32" />

					<path
   style="fill:none;stroke:#ffffff;stroke-linecap:round;stroke-linejoin:round;stroke-miterlimit:10"
   d="m 344.776,349.452 c 0,0 0.673,3.153 -4.079,7.019"
   id="path33" />

					<path
   style="fill:none;stroke:#ffffff;stroke-linecap:round;stroke-linejoin:round;stroke-miterlimit:10"
   d="m 347.146,352.194 c 0,0 0.673,3.153 -4.079,7.019"
   id="path34" />

					<path
   style="fill:none;stroke:#000000;stroke-linecap:round;stroke-linejoin:round;stroke-miterlimit:10"
   d="m 336.223,341.966 c 0,0 7.517,5.291 14.629,13.888 0,0 5.154,-3.168 7.281,1.204 0.66,1.358 0.631,3.07 -0.297,4.261"
   id="path35" />

					<path
   style="fill:#ffffff"
   d="m 355.567,358.639 c 0,0.698 -0.691,1.263 -1.544,1.263 -0.853,0 -1.544,-0.566 -1.544,-1.263 0,-0.698 0.691,-1.263 1.544,-1.263 0.853,0 1.544,0.566 1.544,1.263 z"
   id="path36" />

				</g>

			</g>

			<g
   id="g38">
				<path
   d="m 368.597,376.713 c -1.794,0.271 -3.628,-0.324 -4.863,-1.653 -3.687,-3.967 -5.602,-9.017 -3.616,-14.457 0.254,-1.926 1.749,-4.594 3.959,-4.154 -3.088,-10.534 0.058,-8.998 9.005,-11.396 16.187,-3.659 32.465,-8.124 49.085,-7.977 33.712,0.299 77.224,-22.381 101.906,8.87 5.286,7.752 0.357,16.551 -8.063,18.991 -16.869,6.274 -35.238,9.968 -53.595,11.29 -12.066,0.868 -24.172,0.102 -36.135,-1.701 -19.048,-2.872 -38.66,-0.687 -57.683,2.187 z"
   id="path37" />

				<path
   style="fill:none;stroke:#ffffff;stroke-linecap:round;stroke-linejoin:round;stroke-miterlimit:10"
   d="m 364.076,356.449 c 0,0 50.53,-10.877 87.21,-10.781 3.995,0.01 7.982,-0.281 11.938,-0.838 l 24.944,-3.516 v -3.938"
   id="path38" />

			</g>

			<g
   id="g40">
				<path
   style="fill:#d6ac88"
   d="m 532.259,356.167 c -3.827,1.094 -7.13,-0.491 -10.288,-2.573 -4.095,-2.701 -8.526,-4.833 -13.202,-6.316 -12.114,-3.842 -23.736,-12.83 -11.446,-25.193 12.726,-12.36 19.508,-31.905 33.128,-43.204 11.07,-9.183 27.931,0.114 25.728,14.328 -1.161,7.491 -4.805,15.757 -6.05,24.349 -2.813,13.323 -3.422,32.747 -17.87,38.609 z"
   id="path39" />

				<path
   style="fill:none;stroke:#000000;stroke-linecap:round;stroke-linejoin:round;stroke-miterlimit:10"
   d="m 509.801,305.971 c 0,0 11.25,-18.598 18.328,-23.313"
   id="path40" />

			</g>

			<g
   id="g44">
				<path
   style="fill:#c36c46"
   d="m 515.997,369.888 c 30.881,-4.846 32.09,-12.95 45.119,-40.111 -4.22,-6.166 -12.192,-8.666 -19.367,-7.627 -3.975,8.894 -7.545,17.968 -10.695,27.186 l -31.61,14.069 c 0,0 -11.366,-0.62 -17.161,10.442 -0.73,1.042 0.246,2.372 1.401,1.748 -0.459,1.322 1.617,1.811 2.514,1.099 0.167,3.618 4.237,-1.981 5.989,-1.88 -1.499,0.961 -4.948,6.036 -0.969,3.746 3.627,-3.749 6.116,-2.966 14.267,-5.009 3.492,-0.874 7.016,-2.81 10.512,-3.663 z"
   id="path41" />

				<path
   style="fill:none;stroke:#000000;stroke-linecap:round;stroke-linejoin:round;stroke-miterlimit:10"
   d="m 483.685,375.596 c 0,0 0.38,-4.488 7.464,-6.715"
   id="path42" />

				<path
   style="fill:none;stroke:#000000;stroke-linecap:round;stroke-linejoin:round;stroke-miterlimit:10"
   d="m 486.198,376.694 c 0,0 1.406,-4.189 7.93,-5.478"
   id="path43" />

				<path
   style="fill:none;stroke:#000000;stroke-linecap:round;stroke-linejoin:round;stroke-miterlimit:10"
   d="m 489.367,378.778 c 0,0 1.781,-5.225 6.131,-5.225"
   id="path44" />

			</g>

			<g
   id="g46">
				<path
   style="fill:#d6ac88"
   d="m 556.503,279.74 c 1.809,0.714 3.612,1.575 4.977,2.959 1.935,1.961 2.773,4.735 3.356,7.427 2.687,12.413 1.364,25.361 3.25,37.92 0.112,0.746 0.23,1.539 -0.069,2.232 -0.268,0.62 -0.83,1.059 -1.398,1.425 -3.377,2.178 -7.632,2.678 -11.607,2.097 -3.976,-0.581 -13.439,-2.664 -17.065,-4.397 3.061,-6.999 5.101,-12.286 6.283,-18.759 1.272,-6.971 4.633,-14.21 4.813,-21.285 0.043,-1.707 0.069,-3.415 0.087,-5.123 0.015,-1.496 -0.44,-3.875 0.059,-5.279 0.86,-2.425 5.482,0.06 7.314,0.783 z"
   id="path45" />

				<path
   style="fill:none;stroke:#000000;stroke-linecap:round;stroke-linejoin:round;stroke-miterlimit:10"
   d="m 550.227,332.915 c 0,0 -12.119,-2.052 -16.469,-6.402 0,0 10.391,-15.481 10.632,-23.447"
   id="path46" />

			</g>

			<g
   id="g48">
				<path
   style="fill:#c36c46"
   d="m 542.389,264.684 -4.443,9.308 c 0,0 -2.383,12.925 16.69,7.369 l 4.351,-15.611 z"
   id="path47" />

				<path
   d="m 541.068,267.452 c 3.483,2.762 8.981,2.019 13.161,0.42 -1.18,-2.475 -9.667,-2.846 -11.84,-3.188 z"
   id="path48" />

			</g>

			<g
   id="g63">
				<path
   style="fill:#c36c46"
   d="m 554.159,197.451 c -4.752,1.223 -8.624,4.862 -11.026,9.141 -2.402,4.279 -3.491,9.167 -4.175,14.026 -0.331,2.351 -0.597,4.788 -1.772,6.852 -1.262,2.219 -3.435,3.758 -5.012,5.766 -3.034,3.862 -3.61,9.265 -2.373,14.017 1.238,4.753 4.095,8.935 7.361,12.602 1.581,1.775 3.28,3.464 5.226,4.829 2.15,1.508 4.564,2.596 7.004,3.569 6.548,2.612 13.521,4.478 20.566,4.225 7.045,-0.253 14.198,-2.813 19.008,-7.966 7.347,-7.871 9.263,-19.672 9.376,-30.438 0.113,-10.767 -3.943,-21.87 -12.21,-28.769 -8.409,-7.019 -21.364,-10.583 -31.973,-7.854 z"
   id="path49" />

				<path
   d="m 563.327,202.722 c 4.25,2.777 8.981,2.832 13.857,2.999 10.287,1.85 13.817,13.529 14.503,22.708 0.691,6.13 0.905,12.349 -0.165,18.445 -0.256,1.541 -0.409,3.476 0.913,4.309 9.264,0.697 7.186,-18.652 5.142,-24.42 -4.584,-21.209 -29.631,-40.449 -49.555,-26.081 1.132,1.118 5.817,-0.08 7.505,0.053 2.687,0.211 5.341,0.878 7.8,1.987 z"
   id="path50" />

				<path
   style="fill:#75bfbf"
   d="m 595.068,253.788 c 7.536,8.474 13.892,-18.96 13.349,-24.893 1.363,-26.362 -25.886,-47.777 -50.6,-37.32 -7.427,2.528 -15.687,7.223 -15.159,15.905 11.075,-14.894 32.672,-10.336 44.69,1.609 10.181,11.679 12.268,30.301 7.72,44.699 z"
   id="path51" />

				<g
   id="g62">
					<g
   id="g60">
						<path
   style="fill:none;stroke:#c36c46;stroke-linecap:round;stroke-linejoin:round;stroke-miterlimit:10"
   d="m 560.946,216.146 c -1.064,5.492 -2.408,9.866 -4.915,14.867 -0.893,1.781 -1.586,3.083 -3.453,3.779 -1.596,0.595 -3.374,0.191 -5.012,-0.276 -0.097,2.045 0.82,4.113 2.399,5.415 1.58,1.302 3.785,1.807 5.774,1.322"
   id="path52" />

						<path
   style="fill:none;stroke:#000000;stroke-linecap:round;stroke-linejoin:round;stroke-miterlimit:10"
   d="m 564.712,235.09 c 0.562,2.192 2.456,3.876 4.588,4.632 2.133,0.757 4.475,0.698 6.708,0.333"
   id="path53" />

						<path
   style="fill:none;stroke:#000000;stroke-linecap:round;stroke-linejoin:round;stroke-miterlimit:10"
   d="m 540.156,224.868 c 0.755,1.675 2.108,3.074 3.758,3.882 1.65,0.809 3.584,1.022 5.371,0.592"
   id="path54" />

						<g
   id="g56">
							<path
   d="m 543.879,245.94 c 1.424,-1.211 3.26,-2.021 5.127,-1.921 2.352,0.126 4.4,1.638 6.054,3.315 0.778,0.789 1.535,1.689 1.716,2.781 0.182,1.092 -0.445,2.388 -1.54,2.557 -1.022,0.158 -1.902,-0.651 -2.726,-1.277 -1.542,-1.17 -3.448,-1.854 -5.383,-1.932 -0.862,-0.035 -1.73,0.048 -2.584,-0.068 -2.514,-0.339 -2.341,-2.028 -0.664,-3.455 z"
   id="path55" />

							<path
   style="fill:#ffffff"
   d="m 555.266,247.548 c -0.068,-0.072 -0.137,-0.144 -0.206,-0.214 -1.654,-1.677 -3.702,-3.188 -6.054,-3.315 -1.251,-0.067 -2.485,0.281 -3.594,0.878 2.819,2.031 6.396,2.99 9.854,2.651 z"
   id="path56" />

						</g>

						<path
   style="fill:#c36c46"
   d="m 605.742,253.778 c 1.556,3.35 -0.494,7.604 -4.578,9.501 -4.085,1.897 -8.657,0.719 -10.213,-2.631 -1.556,-3.35 0.494,-7.604 4.579,-9.501 4.083,-1.898 8.656,-0.72 10.212,2.631 z"
   id="path57" />

						<path
   style="fill:none;stroke:#c36c46;stroke-linecap:round;stroke-linejoin:round;stroke-miterlimit:10"
   d="m 602.329,254.105 c -1.03,-1.294 -2.952,-1.787 -4.478,-1.149 -1.526,0.637 -2.526,2.35 -2.331,3.993 -0.173,-0.485 0.403,-0.918 0.913,-0.988 1.125,-0.155 2.293,0.582 2.69,1.646 0.397,1.064 0.025,2.351 -0.843,3.084 -0.868,0.732 -2.161,0.892 -3.205,0.446"
   id="path58" />

						<path
   d="m 580.703,230.984 c -3.362,0.291 -7.157,-1.626 -9.958,-4.952 -0.768,-0.912 -0.317,-2.41 0.86,-2.6 0.01,-0.002 0.021,-0.003 0.032,-0.005 0.56,-0.08 1.1,0.228 1.424,0.692 2.029,2.903 4.963,6.163 7.642,6.865 z"
   id="path59" />

						<path
   d="m 541.036,216.146 c 2.04,2.688 6.008,4.215 10.354,4.061 1.192,-0.042 2,-1.382 1.35,-2.382 -0.006,-0.009 -0.012,-0.018 -0.018,-0.027 -0.316,-0.469 -0.907,-0.663 -1.468,-0.592 -3.513,0.443 -7.899,0.455 -10.218,-1.06 z"
   id="path60" />

					</g>

					<path
   style="opacity:0.56;fill:#d6ac88"
   d="m 574.094,250.253 c 0,3.949 -3.201,7.151 -7.151,7.151 -3.949,0 -7.151,-3.202 -7.151,-7.151 0,-3.949 3.201,-7.151 7.151,-7.151 3.949,0.001 7.151,3.202 7.151,7.151 z"
   id="path61" />

					<path
   style="opacity:0.56;fill:#d6ac88"
   d="m 546.057,237.658 c 0,3.949 -3.201,7.151 -7.151,7.151 -3.949,0 -7.151,-3.202 -7.151,-7.151 0,-3.949 3.201,-7.151 7.151,-7.151 3.949,0 7.151,3.202 7.151,7.151 z"
   id="path62" />

				</g>

			</g>

		</g>

	</g>

	<g
   id="g131"
   transform="matrix(1.4892524,0,0,1.1871547,27.619087,-87.20195)">
		<g
   id="g71"
   style="fill:#ffbda8;fill-opacity:1">
			<g
   id="g68"
   style="fill:#ffbda8;fill-opacity:1">
				<g
   id="g67"
   style="fill:#ffbda8;fill-opacity:1">
					<rect
   x="212.38499"
   y="404.436"
   style="fill:#ffbda8;fill-opacity:1"
   width="17.615999"
   height="53.027"
   id="rect65" />

					<path
   style="fill:#ffbda8;fill-opacity:1"
   d="m 214.065,457.464 h -43.429 c -1.274,0 -1.6,-1.766 -0.41,-2.221 l 43.839,-16.746 z"
   id="path65" />

					<path
   style="fill:#ffbda8;fill-opacity:1"
   d="m 227.112,457.464 h 43.429 c 1.274,0 1.6,-1.766 0.41,-2.221 l -43.838,-16.746 v 18.967 z"
   id="path66" />

					<path
   style="fill:#ffbda8;fill-opacity:1"
   d="m 221.193,457.464 -13.845,17.493 c -0.749,1.115 -2.498,-0.932 -1.04,-5.037 l 14.419,-31.422 z"
   id="path67" />

				</g>

				<path
   d="m 212.385,406.306 v 9.113 c 4.538,1.449 10.516,1.817 17.616,-1.202 v -7.716 c -4.905,-0.817 -11.234,-1.298 -17.616,-0.195 z"
   id="path68"
   style="fill:#ffbda8;fill-opacity:1" />

			</g>

			
				<line
   style="fill:#ffbda8;fill-opacity:1;stroke:#000000;stroke-linecap:round;stroke-linejoin:round;stroke-miterlimit:10"
   x1="211.519"
   y1="458.565"
   x2="220.72701"
   y2="438.49701"
   id="line68" />

			
				<line
   style="fill:#ffbda8;fill-opacity:1;stroke:#000000;stroke-linecap:round;stroke-linejoin:round;stroke-miterlimit:10"
   x1="212.38499"
   y1="439.13901"
   x2="179.744"
   y2="451.60699"
   id="line69" />

			
				<line
   style="fill:#ffbda8;fill-opacity:1;stroke:#000000;stroke-linecap:round;stroke-linejoin:round;stroke-miterlimit:10"
   x1="221.19299"
   y1="457.46399"
   x2="221.19299"
   y2="447.08099"
   id="line70" />

			
				<line
   style="fill:#ffbda8;fill-opacity:1;stroke:#000000;stroke-linecap:round;stroke-linejoin:round;stroke-miterlimit:10"
   x1="230.00101"
   y1="439.60101"
   x2="249.584"
   y2="447.08099"
   id="line71" />

		</g>

		<path
   style="fill:#2f744f;fill-opacity:1"
   d="m 138.98,328.744 c -7.462,-55.313 46.676,-84.722 92.889,-59.625 20.298,12.04 20.225,70.494 24.184,93.565 0.675,3.431 -0.636,6.596 -3.738,8.306 -27.004,18.305 -63.656,29.902 -95.316,17.641 -6.434,-2.783 -7.659,-4.24 -9.694,-11.109 -4.697,-15.853 -7.503,-32.265 -8.325,-48.778 z"
   id="path71" />

		<path
   style="fill:#2f744f;fill-opacity:1"
   d="m 244.948,330.397 c -1.132,-16.003 28.39,-6.158 35.947,-1.588 21.389,10.715 20.231,38.441 12.357,57.693 -26.291,-3.727 -48.416,-29.138 -48.304,-56.105 z"
   id="path72" />

		<g
   id="g75"
   style="fill:#2f744f;fill-opacity:1">
			<path
   style="fill:#2f744f;fill-opacity:1"
   d="m 260.299,406.191 c 9.566,-1.492 20.151,-2.561 27.759,-9.093 3.653,-3.359 10.406,-10.596 6.362,-19.766 -8.408,-19.064 -44.068,-8.625 -63.812,-6.805 -11.749,0.955 -49.634,19.81 -47.899,33.022 13.956,10.919 59.809,5.194 77.59,2.642 z"
   id="path73" />

			<path
   style="fill:#2f744f;fill-opacity:1;stroke:#000000;stroke-linecap:round;stroke-linejoin:round;stroke-miterlimit:10"
   d="m 294.092,389.459 c 0,0 7.881,-17.367 -11.047,-18.945"
   id="path74" />

			<path
   style="fill:#2f744f;fill-opacity:1;stroke:#000000;stroke-linecap:round;stroke-linejoin:round;stroke-miterlimit:10"
   d="m 205.746,396.894 c 0,0 74.357,4.56 87.632,-22.093"
   id="path75" />

		</g>

		<g
   id="g130">
			<path
   style="fill:#c36c46"
   d="m 153.33,175.271 c -10.626,2.21 -19.493,12.012 -19.62,22.865 -0.073,6.243 2.487,12.493 1.217,18.607 -2.374,11.431 -16.508,16.665 -20.946,27.463 -1.336,3.251 -1.535,7.392 0.919,9.909 2.601,2.668 7.14,2.523 9.836,5.096 3.249,3.101 2.339,8.399 3.456,12.75 2.256,8.79 15.074,12.535 21.708,6.343 2.568,-2.397 4.302,-5.905 7.578,-7.175 5.158,-2 12.66,2.068 15.704,-2.551 1.016,-1.542 0.988,-3.523 0.898,-5.367 -0.777,-16.008 -3.447,-32.423 1.069,-47.8 2.475,-8.426 10.42,-21.601 5.726,-30.309 -4.523,-8.387 -19.134,-11.58 -27.545,-9.831 z"
   id="path76" />

			<g
   id="g81">
				<path
   style="fill:#ffd6c1"
   d="m 269.884,452.873 c -0.006,0.208 -0.009,0.427 0.088,0.61 0.093,0.176 0.264,0.294 0.432,0.401 3.904,2.485 8.941,2.156 13.478,1.243 1.457,-0.293 3.048,-0.734 3.855,-1.982 0.892,-1.378 0.487,-3.179 0.18,-4.792 -0.418,-2.195 -0.595,-4.436 -0.526,-6.669 -0.029,0.948 -5.088,2.253 -5.873,2.451 -2.258,0.569 -4.59,0.841 -6.909,1.017 -1.233,0.094 -3.405,-0.243 -4.27,0.845 -1.049,1.32 -0.411,5.241 -0.455,6.876 z"
   id="path77" />

				<g
   id="g80">
					<path
   d="m 269.403,461.533 c 4.398,3.788 26.714,16.067 36.313,13.992 3.365,-0.727 4.594,-4.898 2.245,-7.414 -5.792,-6.203 -12.6,-12.247 -19.588,-17.153 -2.803,4.359 -12.231,4.21 -14.39,3.41 -3.902,-1.445 -4.153,-4.643 -4.22,-4.231 -0.585,3.592 -0.311,10.022 -0.36,11.396 z"
   id="path78" />

					<path
   style="fill:none;stroke:#ffffff;stroke-linecap:round;stroke-linejoin:round;stroke-miterlimit:10"
   d="m 293.882,454.852 c 0,0 -3.401,-1.33 -7.719,4.699"
   id="path79" />

					<path
   style="fill:none;stroke:#ffffff;stroke-linecap:round;stroke-linejoin:round;stroke-miterlimit:10"
   d="m 296.551,457.139 c 0,0 -2.847,-1.205 -7.164,4.824"
   id="path80" />

				</g>

			</g>

			<g
   id="g86">
				<path
   style="fill:#ffd6c1"
   d="m 256.58,458.27 c -0.005,0.208 -0.009,0.426 0.088,0.61 0.093,0.176 0.264,0.294 0.432,0.401 3.904,2.485 8.941,2.156 13.478,1.243 1.457,-0.293 3.048,-0.734 3.855,-1.982 0.892,-1.378 0.487,-3.179 0.18,-4.792 -0.418,-2.195 -0.594,-4.436 -0.525,-6.669 -0.029,0.948 -5.088,2.253 -5.873,2.451 -2.259,0.569 -4.59,0.841 -6.909,1.017 -1.233,0.094 -3.405,-0.243 -4.27,0.845 -1.05,1.32 -0.413,5.241 -0.456,6.876 z"
   id="path81" />

				<g
   id="g85">
					<path
   d="m 256.099,466.93 c 4.398,3.788 26.714,16.067 36.313,13.992 3.365,-0.727 4.594,-4.898 2.245,-7.414 -5.792,-6.203 -12.6,-12.247 -19.588,-17.153 -2.803,4.359 -12.231,4.21 -14.39,3.41 -3.902,-1.445 -4.153,-4.643 -4.22,-4.231 -0.586,3.592 -0.311,10.022 -0.36,11.396 z"
   id="path82" />

					<path
   style="fill:none;stroke:#ffffff;stroke-linecap:round;stroke-linejoin:round;stroke-miterlimit:10"
   d="m 295.87,474.544 c 0,0 -13.36,-14.647 -20.801,-18.189"
   id="path83" />

					<path
   style="fill:none;stroke:#ffffff;stroke-linecap:round;stroke-linejoin:round;stroke-miterlimit:10"
   d="m 281.547,460.751 c 0,0 -3.401,-1.33 -7.719,4.699"
   id="path84" />

					<path
   style="fill:none;stroke:#ffffff;stroke-linecap:round;stroke-linejoin:round;stroke-miterlimit:10"
   d="m 284.215,463.038 c 0,0 -2.847,-1.206 -7.164,4.824"
   id="path85" />

				</g>

			</g>

			<g
   id="g87"
   style="fill:#36351b;fill-opacity:1">
				<path
   style="fill:#36351b;fill-opacity:1"
   d="m 254.692,451.78 c 2.65,0.973 5.38,1.961 8.203,1.886 1.606,-0.043 3.181,-0.43 4.732,-0.852 2.963,-0.807 5.974,-1.732 7.347,-4.479 4.805,0.324 8.466,-2.193 12.65,-4.578 0.824,-17.279 0.656,-34.606 -0.503,-51.866 -0.226,-3.372 -0.491,-6.746 -1.042,-10.081 -0.636,-3.853 -1.654,-7.643 -3.034,-11.296 -0.98,-2.593 -2.159,-5.147 -3.893,-7.309 -1.595,-1.989 -3.615,-3.592 -5.687,-5.077 -3.341,-2.395 -6.868,-4.53 -10.539,-6.381 -12.091,-6.096 -26.018,-9.297 -35.909,-18.545 -8.934,3.057 -18.722,5.877 -27.655,8.935 -4.183,1.432 -8.688,3.11 -11.038,6.855 -1.201,1.914 -1.699,4.181 -2.008,6.419 -0.559,4.049 -0.538,8.298 1.035,12.071 1.665,3.996 4.955,7.143 8.651,9.397 3.696,2.254 7.814,3.707 11.897,5.144 11.688,4.112 23.376,8.224 35.064,12.336 0.635,0.224 1.29,0.458 1.788,0.912 0.73,0.664 1.004,1.681 1.229,2.642 4.061,17.384 3.332,36.844 8.712,53.867 z"
   id="path86" />

				<path
   style="fill:#36351b;fill-opacity:1;stroke:#ffffff;stroke-linecap:round;stroke-linejoin:round;stroke-miterlimit:10"
   d="m 230.118,346.625 c -0.318,1.52 -0.637,3.039 -0.955,4.558 5.85,2.78 11.879,5.721 17.729,8.501 3.282,1.56 6.586,3.132 9.52,5.276 6.169,4.508 10.356,11.327 12.882,18.538 2.526,7.211 3.518,14.859 4.315,22.458 1.436,13.685 2.29,27.468 1.533,41.207"
   id="path87" />

			</g>

			<g
   id="g94">
				<g
   id="g89">
					<path
   style="fill:#ffffff"
   d="m 205.388,272.454 c 9.024,1.368 16.918,6.959 23.184,13.596 6.265,6.637 11.214,14.384 16.85,21.564 7.975,2.935 21.534,7.716 29.508,10.651 1.186,2.091 -0.839,2.316 -3.24,4.557 -1.757,1.64 -4.383,4.129 -6.774,4.38 -12.295,-2.18 -24.595,-6.063 -35.892,-11.384 -1.42,-0.669 -2.86,-1.383 -3.95,-2.513 -0.745,-0.772 -1.295,-1.707 -1.837,-2.632 -2.77,-4.722 -5.54,-9.444 -8.309,-14.167 -4.315,-7.357 -7.928,-15.676 -9.54,-24.052 z"
   id="path88" />

					<path
   style="fill:none;stroke:#000000;stroke-linecap:round;stroke-linejoin:round;stroke-miterlimit:10"
   d="m 245.559,307.585 c -2.71,-0.389 -5.59,1.042 -6.917,3.437"
   id="path89" />

				</g>

				<g
   id="g93">
					<path
   style="fill:#ffd6c1"
   d="m 262.413,323.978 c -0.247,0.799 -0.058,1.684 0.544,2.264 1.665,1.606 1.654,5.729 3.538,7.341 2.323,1.567 0.965,-5.225 1.294,-6.443 1.788,0.747 8.922,8.794 9.666,5.924 0.004,-0.495 -0.121,-1.545 -0.694,-1.642 -0.19,0.054 0.096,0.392 0.108,0.195 0.766,0.944 2.33,2.219 3.575,1.468 0.596,-0.408 0.678,-1.461 0.045,-1.81 0.67,2.78 5.284,0.894 3.137,-1.496 0.128,0.077 0.274,0.179 0.427,0.289 0.543,0.392 1.306,-0.008 1.297,-0.678 -0.018,-1.268 -0.648,-2.582 -1.342,-3.854 -2.054,-3.765 -5.688,-6.432 -9.91,-7.181 -5.018,-0.889 -9.976,0.105 -11.685,5.623 z"
   id="path90" />

					<path
   style="fill:none;stroke:#000000;stroke-linecap:round;stroke-linejoin:round;stroke-miterlimit:10"
   d="m 268.618,324.112 c 1.05,0.657 2.089,1.333 3.115,2.026 0.946,0.639 1.89,1.299 2.67,2.133 1.111,1.186 1.842,2.668 2.558,4.126"
   id="path91" />

					<path
   style="fill:none;stroke:#000000;stroke-linecap:round;stroke-linejoin:round;stroke-miterlimit:10"
   d="m 272.475,322.099 c 3.771,2.309 6.343,6.104 8.796,9.783"
   id="path92" />

					<path
   style="fill:none;stroke:#000000;stroke-linecap:round;stroke-linejoin:round;stroke-miterlimit:10"
   d="m 275.717,320.82 c 3.2,2.169 5.371,5.518 7.449,8.777"
   id="path93" />

				</g>

			</g>

			<g
   id="g95">
				<path
   style="fill:#ffffff"
   d="m 183.969,312.908 c 0.497,7.417 -3.06,27.596 3.52,31.519 12.986,5.661 26.273,3.252 38.035,-3.823 1.22,-0.658 4.302,-3.515 4.146,-4.901 -0.507,-4.521 -1.231,-7.572 -1.443,-11.418 -1.727,-19.584 -8.165,-44.972 -28.75,-51.929 -14.872,-1.951 -14.624,30.518 -15.508,40.552 z"
   id="path94" />

				<path
   style="fill:none;stroke:#000000;stroke-linecap:round;stroke-linejoin:round;stroke-miterlimit:10"
   d="m 217.179,284.413 c 6.734,9.991 9.104,19.563 10.376,33.114"
   id="path95" />

			</g>

			<g
   id="g103">
				<path
   style="fill:#ffffff"
   d="m 208.249,345.336 c -2.86,-5.024 -19.427,-9.05 -28.265,-14.998 4.276,-12.3 9.662,-23.916 16.88,-34.755 1.567,-2.354 4.574,-3.784 5.296,-6.519 2.56,-6.219 -1.144,-18.594 -8.812,-17.237 -22.541,10.129 -33.732,34.263 -37.342,58.25 -2.482,16.491 32.704,23.165 47.146,26.865 -10e-4,10e-4 7.554,-7.959 5.097,-11.606 z"
   id="path96" />

				<path
   style="fill:none;stroke:#000000;stroke-linecap:round;stroke-linejoin:round;stroke-miterlimit:10"
   d="m 179.984,330.338 c 0,0 7.376,-20.569 12.653,-29.844"
   id="path97" />

				<path
   style="fill:none;stroke:#000000;stroke-linecap:round;stroke-linejoin:round;stroke-miterlimit:10"
   d="m 170.662,329.205 c 5.056,-0.826 10.086,1.357 14.615,3.751 5.751,3.041 17.739,8.514 22.971,12.38"
   id="path98" />

				<g
   id="g102">
					<path
   style="fill:#ffd6c1"
   d="m 204.224,356.45 c -0.852,-0.012 -1.522,-0.706 -1.574,-1.556 -0.178,-2.887 0.885,-5.912 3.333,-7.37 1.722,-1.025 3.824,-1.135 5.827,-1.116 4.622,0.045 9.601,0.805 12.902,4.04 0.275,0.269 0.545,0.573 0.627,0.949 0.081,0.376 -0.102,0.835 -0.475,0.929 0.208,0.108 0.318,0.33 0.526,0.438 0.461,0.241 0.956,0.515 1.164,0.992 0.208,0.477 -0.088,1.181 -0.608,1.153 0.597,0.266 1.012,0.901 1.32,1.477 0.094,0.175 0.172,0.377 0.123,0.569 -0.08,0.315 -0.446,0.453 -0.765,0.511 -0.462,0.085 -0.935,0.109 -1.403,0.07 -3.386,-0.28 -6.689,-1.199 -10.07,-1.532 2.694,0.55 5.308,1.485 7.743,2.762 1.019,0.534 0.52,2.108 -0.619,1.94 -1.675,-0.247 -3.375,-0.955 -4.982,-1.549 -4.159,-1.536 -8.629,-2.644 -13.069,-2.707 z"
   id="path99" />

					<path
   style="fill:none;stroke:#000000;stroke-linecap:round;stroke-linejoin:round;stroke-miterlimit:10"
   d="m 214.601,352.641 c 4.565,0.238 7.096,0.734 11.413,2.237"
   id="path100" />

					<path
   style="fill:none;stroke:#000000;stroke-linecap:round;stroke-linejoin:round;stroke-miterlimit:10"
   d="m 225.005,352.332 c -3.029,-1.54 -6.467,-2.266 -9.86,-2.081"
   id="path101" />

					<path
   style="fill:none;stroke:#000000;stroke-linecap:round;stroke-linejoin:round;stroke-miterlimit:10"
   d="m 214.3,355.712 c 3.103,0.489 8.1,1.583 11.714,1.831"
   id="path102" />

				</g>

			</g>

			<g
   id="g104"
   style="fill:#2f744f;fill-opacity:1">
				<path
   style="fill:#2f744f;fill-opacity:1"
   d="m 137.614,361.217 c -14.954,-35.976 21.118,-45.732 44.908,-24.783 18.406,17.064 23.535,45.001 23.93,68.953 -11.978,4.954 -26.579,0.78 -38.418,-3.381 -4.548,-1.766 -11.885,-3.845 -15.202,-7.551 -6.643,-9.98 -10.852,-22.075 -15.218,-33.238 z"
   id="path103" />

				<path
   style="fill:#2f744f;fill-opacity:1;stroke:#000000;stroke-linecap:round;stroke-linejoin:round;stroke-miterlimit:10"
   d="m 134.691,340.311 c 0,0 1.284,-13.211 19.597,-14.168 6.906,-0.361 13.798,1.273 19.856,4.609 3.87,2.131 8.35,5.232 12.165,9.559 0,0 18.766,17.094 20.142,65.076"
   id="path104" />

			</g>

			<g
   id="g129">
				<g
   id="g106">
					<path
   style="fill:#ffd6c1"
   d="m 209.657,273.955 c -0.253,-4.157 -0.861,-8.159 -1.115,-12.316 -5.764,0.402 -11.257,0.053 -16.959,-0.88 -0.115,4.956 -0.23,9.913 -0.345,14.869 5.498,8.374 21.087,14.054 18.419,-1.673 z"
   id="path105" />

					<path
   d="m 209.174,268.533 c -0.24,-2.285 -0.49,-4.566 -0.632,-6.894 -4.887,0.341 -9.579,0.137 -14.368,-0.5 -0.335,1.642 2.212,3.39 3.869,4.402 2.853,1.743 6.128,2.8 9.468,2.998 0.545,0.032 1.105,0.029 1.663,-0.006 z"
   id="path106" />

				</g>

				<g
   id="g125">
					
						<line
   style="fill:none;stroke:#105e54;stroke-width:2;stroke-linecap:round;stroke-linejoin:round;stroke-miterlimit:10"
   x1="241.873"
   y1="232.539"
   x2="227.905"
   y2="232.539"
   id="line106" />

					<path
   style="fill:#ffd6c1"
   d="m 190.377,263.323 c -26.098,-2.761 -24.596,-30.738 -18.282,-50.004 13.349,-10.921 32.146,-20.165 49.428,-14.547 14.31,4.57 12.322,19.462 9.324,31.58 13.868,34.399 -14.333,36.641 -40.47,32.971 z"
   id="path107" />

					<g
   id="g121">
						<g
   id="g108">
							<path
   style="fill:#105e54"
   d="m 184.641,232.539 h -19.703 c -0.519,0 -0.939,-0.421 -0.939,-0.939 0,-0.519 0.421,-0.939 0.939,-0.939 h 19.703 c 0.519,0 0.939,0.421 0.939,0.939 0,0.518 -0.42,0.939 -0.939,0.939 z"
   id="path108" />

						</g>

						<circle
   style="fill:#ffd6c1"
   cx="191.23801"
   cy="243.726"
   r="7.316"
   id="circle108" />

						<circle
   style="fill:#ffd6c1"
   cx="226.955"
   cy="243.726"
   r="7.316"
   id="circle109" />

						<path
   style="fill:none;stroke:#d28738;stroke-linecap:round;stroke-linejoin:round;stroke-miterlimit:10"
   d="m 215.802,216.382 c -1.49,5.514 -2.351,11.197 -2.562,16.904 -0.087,2.346 -0.047,4.78 0.931,6.914 0.978,2.134 3.127,3.895 5.468,3.724 -1.961,1.98 -5.483,2.112 -7.587,0.285"
   id="path109" />

						<g
   id="g112">
							<circle
   style="fill:#ffffff"
   cx="223.386"
   cy="233.593"
   r="5.3969998"
   id="circle110" />

							<path
   d="m 224.211,228.265 c -2.588,0.398 -4.572,2.628 -4.572,5.327 0,2.699 1.984,4.929 4.572,5.327 2.588,-0.398 4.572,-2.628 4.572,-5.327 0,-2.699 -1.984,-4.928 -4.572,-5.327 z"
   id="path110" />

							<g
   id="g111">
								<path
   d="m 217.989,232.345 c 0.341,-4.276 6.704,-6.235 9.39,-2.904 0.908,1.032 1.301,2.365 1.378,3.631 -0.458,-1.192 -1.075,-2.295 -1.939,-3.088 -2.736,-2.513 -7.482,-0.972 -8.829,2.361 z"
   id="path111" />

							</g>

							<polygon
   style="fill:#ffffff"
   points="224.211,233.593 218.17,234.964 219.208,230.941 "
   id="polygon111" />

						</g>

						<path
   style="fill:none;stroke:#000000;stroke-linecap:round;stroke-linejoin:round;stroke-miterlimit:10"
   d="m 201.883,248.708 c 1.849,2.116 5.12,2.84 7.689,1.702"
   id="path112" />

						<g
   id="g116">
							<path
   style="fill:#ffffff"
   d="m 202.653,234.252 c 0,2.981 -2.416,5.397 -5.397,5.397 -2.981,0 -5.397,-2.416 -5.397,-5.397 0,-2.981 2.416,-5.397 5.397,-5.397 2.981,0 5.397,2.416 5.397,5.397 z"
   id="path113" />

							<path
   d="m 198.081,228.924 c -2.588,0.398 -4.572,2.628 -4.572,5.327 0,2.699 1.984,4.929 4.572,5.327 2.588,-0.398 4.572,-2.628 4.572,-5.327 0,-2.698 -1.984,-4.928 -4.572,-5.327 z"
   id="path114" />

							<g
   id="g115">
								<path
   d="m 191.859,233.005 c 0.341,-4.276 6.704,-6.235 9.39,-2.904 0.908,1.032 1.301,2.365 1.378,3.63 -0.458,-1.192 -1.075,-2.295 -1.939,-3.088 -2.736,-2.513 -7.481,-0.972 -8.829,2.362 z"
   id="path115" />

							</g>

							<polygon
   style="fill:#ffffff"
   points="198.081,234.252 192.04,235.623 193.079,231.6 "
   id="polygon115" />

						</g>

						<g
   id="g120">
							<g
   id="g117">
								<path
   style="fill:#105e54"
   d="m 208.741,234.671 c -0.282,0 -0.561,-0.127 -0.746,-0.368 -0.316,-0.412 -0.237,-1.001 0.175,-1.317 5.613,-4.3 10.399,-0.135 10.445,-0.093 0.387,0.345 0.421,0.939 0.075,1.326 -0.345,0.386 -0.937,0.42 -1.323,0.078 -0.155,-0.136 -3.699,-3.155 -8.054,0.181 -0.172,0.129 -0.373,0.193 -0.572,0.193 z"
   id="path116" />

							</g>

							<g
   id="g118">
								<path
   style="fill:#105e54"
   d="m 205.676,242.747 h -17.971 c -2.208,0 -4.004,-1.796 -4.004,-4.004 v -9.162 c 0,-2.208 1.796,-4.004 4.004,-4.004 h 17.971 c 2.208,0 4.004,1.796 4.004,4.004 v 9.162 c 0,2.208 -1.796,4.004 -4.004,4.004 z m -17.971,-15.291 c -1.172,0 -2.125,0.953 -2.125,2.125 v 9.162 c 0,1.172 0.953,2.125 2.125,2.125 h 17.971 c 1.172,0 2.125,-0.953 2.125,-2.125 v -9.162 c 0,-1.172 -0.953,-2.125 -2.125,-2.125 z"
   id="path117" />

							</g>

							<g
   id="g119">
								<path
   style="fill:#105e54"
   d="m 238.986,242.747 h -17.97 c -2.208,0 -4.004,-1.796 -4.004,-4.004 v -9.162 c 0,-2.208 1.796,-4.004 4.004,-4.004 h 17.97 c 2.208,0 4.004,1.796 4.004,4.004 v 9.162 c 0.001,2.208 -1.796,4.004 -4.004,4.004 z m -17.97,-15.291 c -1.172,0 -2.125,0.953 -2.125,2.125 v 9.162 c 0,1.172 0.953,2.125 2.125,2.125 h 17.97 c 1.172,0 2.125,-0.953 2.125,-2.125 v -9.162 c 0,-1.172 -0.953,-2.125 -2.125,-2.125 z"
   id="path118" />

							</g>

						</g>

					</g>

					<path
   style="fill:#c36c46"
   d="m 200.62,223.875 c 1.736,-0.15 1.902,-2.643 0.234,-3.147 -1.326,-0.4 -2.731,-0.536 -4.107,-0.38 -2.418,0.274 -4.725,1.446 -6.372,3.237 2.338,-0.424 4.569,-0.336 6.923,-0.01 1.093,0.151 2.189,0.384 3.29,0.302 0.01,0 0.021,-0.001 0.032,-0.002 z"
   id="path121" />

					<path
   style="fill:#c36c46"
   d="m 219.787,223.875 c -1.736,-0.15 -1.902,-2.643 -0.234,-3.147 1.326,-0.4 2.731,-0.536 4.108,-0.38 2.418,0.274 4.725,1.446 6.371,3.237 -2.338,-0.424 -4.569,-0.336 -6.922,-0.01 -1.093,0.151 -2.189,0.384 -3.29,0.302 -0.011,0 -0.022,-0.001 -0.033,-0.002 z"
   id="path122" />

					<g
   id="g124">
						<path
   style="fill:#ffd6c1"
   d="m 164.098,231.372 c -13.768,-2.46 -8.242,21.058 3.691,15.748 6.177,-3.434 2.857,-14.487 -3.691,-15.748 z"
   id="path123" />

						<path
   style="fill:none;stroke:#d28738;stroke-linecap:round;stroke-linejoin:round;stroke-miterlimit:10"
   d="m 160.768,236.498 c 0.705,-0.971 2.324,-0.754 3.151,0.115 0.826,0.87 1.07,2.125 1.274,3.307 -0.513,-0.914 -1.891,-1.138 -2.732,-0.512 -0.841,0.626 -1.059,1.905 -0.569,2.831 0.647,1.223 2.428,1.661 3.569,0.878"
   id="path124" />

					</g>

				</g>

				<g
   id="g128">
					<path
   style="fill:#c36c46"
   d="m 156.557,234.252 c 8.7,-10.594 13.804,10.745 16.967,-8.261 -1.146,-11.031 25.423,-1.758 33.887,-27.389 4.65,7.999 18.014,19.31 24.88,12.35 6,-6.083 2.429,-16.077 -5.169,-19.724 -17.621,-11.093 -40.336,-7.981 -58.708,-0.407 -17.311,7.187 -19.458,28.174 -11.857,43.431 z"
   id="path125" />

					<path
   style="fill:none;stroke:#000000;stroke-linecap:round;stroke-linejoin:round;stroke-miterlimit:10"
   d="m 157.519,232.952 c -2.491,-3.476 -4.779,-7.564 -6.422,-12.667 0,0 -6.833,-24.318 32.351,-34.29"
   id="path126" />

					<path
   style="fill:none;stroke:#000000;stroke-linecap:round;stroke-linejoin:round;stroke-miterlimit:10"
   d="m 233.735,198.007 c 1.036,2.458 1.452,5.214 0.925,7.828 -0.527,2.615 -2.048,5.064 -4.305,6.486"
   id="path127" />

					<path
   style="fill:none;stroke:#000000;stroke-linecap:round;stroke-linejoin:round;stroke-miterlimit:10"
   d="m 207.411,198.602 c 0,0 -4.536,18.585 -28.445,21.381"
   id="path128" />

				</g>

				<path
   style="fill:none;stroke:#000000;stroke-linecap:round;stroke-linejoin:round;stroke-miterlimit:10"
   d="m 170.013,247.904 c 0,0 2.65,14.308 23.176,15.788"
   id="path129" />

			</g>

		</g>

	</g>

	<g
   id="g140"
   transform="matrix(1.1258987,0,0,1.1337654,-12.899343,-88.690779)">
		<g
   id="g132"
   style="fill:#67463c;fill-opacity:1">
			<ellipse
   style="fill:#67463c;fill-opacity:1"
   cx="79.195999"
   cy="405.42001"
   rx="37.265999"
   ry="6.21"
   id="ellipse131" />

		</g>

		<g
   id="g138"
   style="fill:#96bc79;fill-opacity:1">
			<path
   style="fill:#96bc79;fill-opacity:1"
   d="m 118.41,337.222 c -10.396,14.667 -17.796,31.233 -23.68,48.522 3.82,-14.061 7.065,-28.283 9.785,-42.863 -4.455,-14.48 -17.517,31.631 -18.451,35.664 0.911,-12.327 1.395,-24.716 1.463,-37.292 0.015,-2.824 -3.979,-3.458 -4.821,-0.763 -2.137,6.837 -3.729,13.815 -4.891,20.89 -0.76,-2.952 -3.875,-26.873 -8.518,-21.375 -0.755,0.894 -1.098,2.07 -1.089,3.24 0.096,12.091 0.577,24.014 1.454,35.878 -0.83,-3.649 -12.591,-45.182 -17.635,-37.541 -0.62,0.939 -0.773,2.116 -0.564,3.222 2.668,14.111 5.83,27.891 9.533,41.519 C 55.226,369.371 48,353.115 37.921,338.662 c -0.473,-0.679 -1.118,-1.244 -1.895,-1.529 -11.756,-4.313 24.298,69.89 26.418,74.613 H 92.99 c 2.048,-4.525 40.912,-84.405 25.42,-74.524 z"
   id="path132" />

			<g
   id="g137"
   style="fill:#96bc79;fill-opacity:1">
				
					<line
   style="fill:#96bc79;fill-opacity:1;stroke:#000000;stroke-linecap:round;stroke-linejoin:round;stroke-miterlimit:10"
   x1="41.591999"
   y1="353.36801"
   x2="67.832001"
   y2="410.60999"
   id="line132" />

				
					<line
   style="fill:#96bc79;fill-opacity:1;stroke:#000000;stroke-linecap:round;stroke-linejoin:round;stroke-miterlimit:10"
   x1="56.150002"
   y1="351.05701"
   x2="71.268997"
   y2="410.85599"
   id="line133" />

				
					<line
   style="fill:#96bc79;fill-opacity:1;stroke:#000000;stroke-linecap:round;stroke-linejoin:round;stroke-miterlimit:10"
   x1="72.242996"
   y1="363.26999"
   x2="74.950996"
   y2="413.065"
   id="line134" />

				
					<line
   style="fill:#96bc79;fill-opacity:1;stroke:#000000;stroke-linecap:round;stroke-linejoin:round;stroke-miterlimit:10"
   x1="85.016998"
   y1="343.59"
   x2="77.862999"
   y2="413.065"
   id="line135" />

				
					<line
   style="fill:#96bc79;fill-opacity:1;stroke:#000000;stroke-linecap:round;stroke-linejoin:round;stroke-miterlimit:10"
   x1="96.350998"
   y1="363.26999"
   x2="82.806999"
   y2="413.065"
   id="line136" />

				
					<line
   style="fill:#96bc79;fill-opacity:1;stroke:#000000;stroke-linecap:round;stroke-linejoin:round;stroke-miterlimit:10"
   x1="118.159"
   y1="345.36899"
   x2="87.225998"
   y2="413.065"
   id="line137" />

			</g>

		</g>

		<g
   id="g139"
   style="fill:#af8174;fill-opacity:1">
			<path
   style="fill:#af8174;fill-opacity:1"
   d="m 41.93,406.071 12.52,77.821 c 0,0 16.255,10.555 50.476,0 l 11.536,-78.819 c 0,0 -30.343,12.391 -74.532,0.998 z"
   id="path138" />

			<path
   style="fill:#af8174;fill-opacity:1;stroke:#000000;stroke-linecap:round;stroke-linejoin:round;stroke-miterlimit:10"
   d="m 55.504,453.173 3.349,22.375 c 0.404,2.696 2.348,5.039 5.168,6.086 5.731,2.127 17.146,4 36.201,-2.135"
   id="path139" />

		</g>

	</g>

	<g
   id="g165"
   transform="translate(557.7638,13.10852)">
		<g
   id="g141">
			<ellipse
   style="fill:#67463c;fill-opacity:1"
   cx="671.508"
   cy="406.51401"
   rx="34.374001"
   ry="6.4359999"
   id="ellipse140" />

			<path
   d="m 678.178,409.796 c 2.681,-0.344 6.247,-1.032 7.617,-3.701 0.925,-1.802 0.023,-3.674 -0.026,-5.436 11.864,1.014 20.113,3.254 20.113,5.855 0,3.554 -15.39,6.436 -34.374,6.436 -9.277,0 -17.689,-0.689 -23.872,-1.808 -0.563,-0.643 -1.069,-1.334 -1.501,-2.079 10.656,1.048 21.422,2.095 32.043,0.733 z"
   id="path140" />

		</g>

		<g
   id="g147"
   style="fill:#85b164;fill-opacity:1">
			<path
   style="fill:#85b164;fill-opacity:1"
   d="m 711.573,389.794 c -6.429,-0.461 -13.602,0.694 -19.32,-2.855 19.184,0.987 35.69,-3.718 38.19,-25.37 -5.779,1.211 -12.93,1.313 -17.974,-1.879 5.897,-3.785 13.053,-4.125 18.725,-9.807 0.462,-7.185 -0.37,-12.881 -2.23,-17.059 -2.725,1.16 -5.498,2.281 -8.43,2.659 1.903,-1.167 3.826,-2.345 5.501,-3.831 0.288,-0.255 0.869,-1.045 1.398,-1.607 -5.639,-8.247 -16.887,-7.615 -30.238,2.589 0.048,2.951 1.253,8.922 1.885,11.786 -2.726,-2.187 -4.024,-5.579 -4.947,-9.01 -9.222,9.195 -13.653,21.852 -16.562,34.362 -7.815,28.358 13.208,33.765 34.002,20.022 z m -19.144,-37.106 c 8.456,0.207 3.862,23.229 -1.319,7.845 -1.266,-4.149 -2.323,-7.106 1.319,-7.845 z"
   id="path141" />

			<path
   style="fill:#85b164;fill-opacity:1;stroke:#000000;stroke-linecap:round;stroke-linejoin:round;stroke-miterlimit:10"
   d="m 720.571,325.178 c -0.238,8.221 -4.172,15.822 -8.016,23.093 -1.94,3.67 -3.884,7.347 -6.172,10.81 -7.52,11.377 -18.693,20.361 -24.191,32.841 -2.634,5.978 -3.824,12.477 -4.886,18.922"
   id="path142" />

			<path
   style="fill:#85b164;fill-opacity:1;stroke:#000000;stroke-linecap:round;stroke-linejoin:round;stroke-miterlimit:10"
   d="m 711.098,351.014 c 5.163,-3.227 9.446,-4.723 14.865,-7.499"
   id="path143" />

			<path
   style="fill:#85b164;fill-opacity:1;stroke:#000000;stroke-linecap:round;stroke-linejoin:round;stroke-miterlimit:10"
   d="m 702.378,364.576 c 0.514,-2.61 1.233,-6.167 1.422,-9.326 0.355,-5.926 0.918,-13.367 1.127,-19.299"
   id="path144" />

			<path
   style="fill:#85b164;fill-opacity:1;stroke:#000000;stroke-linecap:round;stroke-linejoin:round;stroke-miterlimit:10"
   d="m 692.249,376.68 c 3.743,-2.993 8.778,-3.716 13.559,-4.033 4.782,-0.317 9.732,-0.371 14.094,-2.354"
   id="path145" />

			<path
   style="fill:#85b164;fill-opacity:1;stroke:#000000;stroke-linecap:round;stroke-linejoin:round;stroke-miterlimit:10"
   d="m 686.481,384.288 c 0.465,-2.503 0.04,-5.074 -0.307,-7.597 -0.67,-4.871 -1.043,-9.863 -0.043,-14.676"
   id="path146" />

			<path
   style="fill:#85b164;fill-opacity:1;stroke:#000000;stroke-linecap:round;stroke-linejoin:round;stroke-miterlimit:10"
   d="m 683.482,389.938 c 0.407,0.789 1.246,1.253 2.07,1.585 2.119,0.855 4.464,1.143 6.726,0.825"
   id="path147" />

		</g>

		<g
   id="g154"
   style="fill:#82af5f;fill-opacity:1">
			<path
   style="fill:#82af5f;fill-opacity:1"
   d="m 670.256,378.426 c -2.345,-10.084 -5.917,-20.286 -13.349,-27.698 -0.743,2.765 -1.79,5.499 -3.987,7.262 0.509,-2.309 1.48,-7.122 1.519,-9.5 -10.761,-8.224 -19.828,-8.734 -24.373,-2.087 0.427,0.453 0.895,1.09 1.127,1.296 1.35,1.198 2.9,2.148 4.434,3.088 -2.364,-0.305 -4.598,-1.208 -6.795,-2.143 -1.499,3.368 -2.17,7.959 -1.797,13.75 4.572,4.579 10.34,4.854 15.093,7.905 -4.066,2.573 -9.83,2.491 -14.488,1.514 2.016,17.452 15.32,21.244 30.783,20.449 -4.609,2.86 -10.391,1.929 -15.573,2.301 16.759,11.079 33.705,6.721 27.406,-16.137 z m -10.913,-7.448 c -4.176,12.4 -7.879,-6.157 -1.063,-6.323 2.935,0.596 2.083,2.98 1.063,6.323 z"
   id="path148" />

			<path
   style="fill:#82af5f;fill-opacity:1;stroke:#000000;stroke-linecap:round;stroke-linejoin:round;stroke-miterlimit:10"
   d="m 635.596,342.481 c 0.192,6.626 3.363,12.753 6.461,18.614 1.563,2.958 3.13,5.922 4.975,8.713 6.061,9.17 15.068,16.412 19.499,26.471 2.123,4.819 3.083,10.057 3.938,15.252"
   id="path149" />

			<path
   style="fill:#82af5f;fill-opacity:1;stroke:#000000;stroke-linecap:round;stroke-linejoin:round;stroke-miterlimit:10"
   d="m 643.232,363.306 c -4.162,-2.601 -7.614,-3.807 -11.982,-6.044"
   id="path150" />

			<path
   style="fill:#82af5f;fill-opacity:1;stroke:#000000;stroke-linecap:round;stroke-linejoin:round;stroke-miterlimit:10"
   d="m 650.26,374.237 c -0.414,-2.104 -0.993,-4.971 -1.146,-7.517 -0.286,-4.776 -0.74,-10.774 -0.908,-15.556"
   id="path151" />

			<path
   style="fill:#82af5f;fill-opacity:1;stroke:#000000;stroke-linecap:round;stroke-linejoin:round;stroke-miterlimit:10"
   d="m 658.425,383.993 c -3.017,-2.412 -7.075,-2.996 -10.93,-3.251 -3.854,-0.255 -7.844,-0.299 -11.361,-1.897"
   id="path152" />

			<path
   style="fill:#82af5f;fill-opacity:1;stroke:#000000;stroke-linecap:round;stroke-linejoin:round;stroke-miterlimit:10"
   d="m 663.074,390.126 c -0.375,-2.018 -0.032,-4.09 0.248,-6.123 0.54,-3.926 0.841,-7.95 0.035,-11.83"
   id="path153" />

			<path
   style="fill:#82af5f;fill-opacity:1;stroke:#000000;stroke-linecap:round;stroke-linejoin:round;stroke-miterlimit:10"
   d="m 665.491,394.68 c -0.328,0.636 -1.004,1.01 -1.668,1.277 -1.708,0.689 -3.598,0.921 -5.422,0.665"
   id="path154" />

		</g>

		<g
   id="g163"
   style="fill:#81af5e;fill-opacity:1">
			<path
   style="fill:#81af5e;fill-opacity:1"
   d="m 659.716,342.687 c 11.694,47.376 24.008,-4.728 22.007,-22.641 -2.25,5.018 -4.58,9.998 -6.861,15.002 2.351,-8.407 3.938,-15.664 5.874,-24.527 -1.037,-15.339 -7.977,-17.526 -14.318,-2.84 0.781,4.836 2.428,11.022 4.052,15.484 -2.177,0.407 -5.085,-6.461 -6.399,-8.24 -3.913,15.361 -8.653,21.025 5.422,36.089 -3.236,-2.892 -7.044,-4.955 -9.777,-8.327 z m 14.242,-3.673 c 0.746,-1.692 3.406,-0.803 2.956,0.991 -0.512,2.041 -2.397,4.249 -3.322,1.854 -0.169,-0.789 -0.035,-1.934 0.366,-2.845 z"
   id="path155" />

			<g
   id="g162"
   style="fill:#81af5e;fill-opacity:1">
				<path
   style="fill:#81af5e;fill-opacity:1;stroke:#000000;stroke-linecap:round;stroke-linejoin:round;stroke-miterlimit:10"
   d="m 675.458,297.93 c -2.917,7.48 -1.768,15.848 -2.616,23.832 -0.739,6.959 -3.018,13.705 -3.497,20.687 -0.264,3.843 0.023,7.7 0.309,11.541 0.33,4.422 0.659,8.844 0.989,13.266 0.268,3.596 0.536,7.193 0.966,10.773 1.336,11.134 4.215,22.551 1.263,33.37"
   id="path156" />

				<path
   style="fill:#81af5e;fill-opacity:1;stroke:#000000;stroke-linecap:round;stroke-linejoin:round;stroke-miterlimit:10"
   d="m 673.097,318.385 c -0.804,-5.009 -2.086,-8.416 -3.823,-13.183"
   id="path157" />

				<path
   style="fill:#81af5e;fill-opacity:1;stroke:#000000;stroke-linecap:round;stroke-linejoin:round;stroke-miterlimit:10"
   d="m 673.247,313.802 c 1.056,-2.013 2.159,-3.017 3.368,-4.941"
   id="path158" />

				<path
   style="fill:#81af5e;fill-opacity:1;stroke:#000000;stroke-linecap:round;stroke-linejoin:round;stroke-miterlimit:10"
   d="m 669.91,337.727 c 0.361,-2.362 -0.206,-3.589 -0.946,-5.861 -0.854,-2.621 -2.401,-4.978 -3.213,-7.612"
   id="path159" />

				<path
   style="fill:#81af5e;fill-opacity:1;stroke:#000000;stroke-linecap:round;stroke-linejoin:round;stroke-miterlimit:10"
   d="m 669.24,345.393 c -0.671,-4.521 -3.759,-6.381 -5.421,-10.639"
   id="path160" />

				<path
   style="fill:#81af5e;fill-opacity:1;stroke:#000000;stroke-linecap:round;stroke-linejoin:round;stroke-miterlimit:10"
   d="m 669.91,357.474 c 2.609,-3.081 4.631,-6.658 5.926,-10.482"
   id="path161" />

				<path
   style="fill:#81af5e;fill-opacity:1;stroke:#000000;stroke-linecap:round;stroke-linejoin:round;stroke-miterlimit:10"
   d="m 669.282,354.336 c -1.618,-0.998 -3.236,-1.997 -4.855,-2.995"
   id="path162" />

			</g>

		</g>

		<g
   id="g164"
   style="fill:#af8274;fill-opacity:1">
			<path
   style="fill:#af8274;fill-opacity:1"
   d="m 705.882,407.189 -11.549,80.65 c 0,0 -14.993,10.939 -46.558,0 l -10.641,-81.685 c 10e-4,10e-4 27.988,12.843 68.748,1.035 z"
   id="path163" />

			<path
   style="fill:#af8274;fill-opacity:1;stroke:#000000;stroke-linecap:round;stroke-linejoin:round;stroke-miterlimit:10"
   d="m 693.361,456.004 -3.089,23.188 c -0.372,2.794 -2.166,5.222 -4.767,6.307 -5.286,2.205 -15.815,4.145 -33.391,-2.213"
   id="path164" />

		</g>

	</g>

	
</g>
    </g>
  </g>
</svg>
